<?xml version="1.0" encoding="utf-8"?>
<!-- Generator: Adobe Illustrator 22.1.0, SVG Export Plug-In . SVG Version: 6.00 Build 0)  -->
<svg version="1.1" id="Capa_1" xmlns="http://www.w3.org/2000/svg" xmlns:xlink="http://www.w3.org/1999/xlink" x="0px" y="0px"
	 viewBox="0 0 780 646" style="enable-background:new 0 0 780 646;" xml:space="preserve">
<style type="text/css">
	.st0{fill:url(#SVGID_1_);}
	.st1{fill:url(#SVGID_2_);}
	.st2{fill:url(#SVGID_4_);}
	.st3{fill:#24126A;}
	.st4{opacity:0.51;}
	.st5{fill:#453C9E;}
	.st6{fill:url(#SVGID_5_);}
	.st7{fill:url(#SVGID_6_);}
	.st8{fill:#2842A2;}
	.st9{fill:#ADB1F2;}
	.st10{fill:#9198DB;}
	.st11{fill:url(#SVGID_7_);}
	.st12{opacity:0.11;}
	.st13{clip-path:url(#SVGID_8_);}
	.st14{fill:url(#SVGID_9_);}
	.st15{fill:url(#SVGID_10_);}
	.st16{opacity:0.5;fill:#42E8E0;}
	.st17{fill:#42E8E0;}
</style>
<g>
	<g>
		<g>
			<g>
				<g>
					<g>
						
							<linearGradient id="SVGID_1_" gradientUnits="userSpaceOnUse" x1="-3475.4839" y1="445.3679" x2="-3093.3555" y2="445.3679" gradientTransform="matrix(-1 0 0 1 -2933.9871 0)">
							<stop  offset="0" style="stop-color:#42E8E0"/>
							<stop  offset="0.1507" style="stop-color:#43E3E0"/>
							<stop  offset="0.3285" style="stop-color:#45D5DF"/>
							<stop  offset="0.5199" style="stop-color:#49BDDD"/>
							<stop  offset="0.7209" style="stop-color:#4E9CDB"/>
							<stop  offset="0.9274" style="stop-color:#5472D8"/>
							<stop  offset="1" style="stop-color:#5761D7"/>
						</linearGradient>
						<path class="st0" d="M398.1,556.5c-3.5,0-7-0.9-10.2-2.7L161.4,423c-1.3-0.8-2.1-2.1-2.1-3.6c0-1.5,0.8-2.8,2.1-3.6
							l141.3-81.6l0.5,0.3l236.2,136.3c1.3,0.7,2.1,2.1,2.1,3.6c0,1.5-0.8,2.8-2.1,3.6l-131.1,75.7
							C405.2,555.6,401.6,556.5,398.1,556.5z M302.7,336.7l-140.2,81c-0.6,0.4-1,1-1,1.7c0,0.7,0.4,1.4,1,1.7L389,551.9
							c5.6,3.2,12.6,3.2,18.2,0l131.1-75.7c0.6-0.4,1-1,1-1.7c0-0.7-0.4-1.4-1-1.7L302.7,336.7z"/>
					</g>
					<g>
						<g>
							
								<linearGradient id="SVGID_2_" gradientUnits="userSpaceOnUse" x1="-3527.7468" y1="260.7705" x2="-3236.3745" y2="260.7705" gradientTransform="matrix(-1 0 0 1 -2933.9871 0)">
								<stop  offset="0" style="stop-color:#C0BFF6"/>
								<stop  offset="0.2938" style="stop-color:#C5C4F7"/>
								<stop  offset="0.6399" style="stop-color:#D3D2F9"/>
								<stop  offset="1" style="stop-color:#E9E9FD"/>
							</linearGradient>
							<path class="st1" d="M302.4,278.9L334,91.7l-2.5-1.1l3.8-2.2l0,0c0.7-0.5,1.8-0.5,2.9,0.2l252.2,145.6
								c2.1,1.2,3.6,4.3,3.3,6.4l-31.8,188.7c-0.2,1-0.7,1.6-1.3,1.9l0,0l-3.7,2.2l-0.6-3.5l0.2,0.1L305.7,285.3
								C303.6,284.1,302.1,281,302.4,278.9z"/>
							
								<linearGradient id="SVGID_4_" gradientUnits="userSpaceOnUse" x1="-3527.7451" y1="335.4943" x2="-3477.7134" y2="335.4943" gradientTransform="matrix(-1 0 0 1 -2933.9871 0)">
								<stop  offset="0" style="stop-color:#5761D7"/>
								<stop  offset="0.1779" style="stop-color:#5C66D9"/>
								<stop  offset="0.3876" style="stop-color:#6A73DF"/>
								<stop  offset="0.6134" style="stop-color:#8289E8"/>
								<stop  offset="0.849" style="stop-color:#A3A7F5"/>
								<stop  offset="1" style="stop-color:#BCBEFF"/>
							</linearGradient>
							<path class="st2" d="M589,239.4l4.1-1.8c0.5,1.1,0.7,2.2,0.5,3.1l-31.8,188.7c-0.2,1-0.7,1.6-1.3,1.9l0,0l-3.7,2.2l-0.6-3.5
								l0.2,0.1l-12.7-7.3L589,239.4z"/>
							<path class="st3" d="M301.8,287.6L554,433.2c1.9,1.1,3.6,0.5,4-1.5l31.8-188.7c0.4-2.1-1.2-5.2-3.3-6.4L334.3,90.9
								c-1.9-1.1-3.6-0.5-4,1.5l-31.8,188.7C298.1,283.3,299.7,286.4,301.8,287.6z"/>
							<g class="st4">
								<polygon class="st5" points="337.5,102.9 580.7,243.3 550.5,421 307.6,280.8 								"/>
							</g>
						</g>
						<g>
							
								<linearGradient id="SVGID_5_" gradientUnits="userSpaceOnUse" x1="-3488.7097" y1="419.4925" x2="-3077.1968" y2="419.4925" gradientTransform="matrix(-1 0 0 1 -2933.9871 0)">
								<stop  offset="0" style="stop-color:#5761D7"/>
								<stop  offset="0.1779" style="stop-color:#5C66D9"/>
								<stop  offset="0.3876" style="stop-color:#6A73DF"/>
								<stop  offset="0.6134" style="stop-color:#8289E8"/>
								<stop  offset="0.849" style="stop-color:#A3A7F5"/>
								<stop  offset="1" style="stop-color:#BCBEFF"/>
							</linearGradient>
							<path class="st6" d="M143.2,376.9l13.8,7.2l138-79.7c2.3-1.3,6.3-1.2,9,0.4l238.1,137.4c2.3-1.3,12.7-6.3,12.7-6.3l-5,13.1
								c0,0,0,0,0,0c-0.2,0.6-0.7,1.1-1.4,1.6l-145.4,83.9c-2.3,1.3-6.3,1.2-9-0.4L150.3,393.5c-1.1-0.6-1.8-1.4-2-2.2l0,0
								L143.2,376.9z"/>
							
								<linearGradient id="SVGID_6_" gradientUnits="userSpaceOnUse" x1="-3350.4399" y1="405.7711" x2="-2938.7078" y2="405.7711" gradientTransform="matrix(-1 0 0 1 -2933.9871 0)">
								<stop  offset="0" style="stop-color:#C0BFF6"/>
								<stop  offset="0.2938" style="stop-color:#C5C4F7"/>
								<stop  offset="0.6399" style="stop-color:#D3D2F9"/>
								<stop  offset="1" style="stop-color:#E9E9FD"/>
							</linearGradient>
							<path class="st7" d="M145.3,379.2L395,523.3c2.7,1.6,6.9,1.7,9.2,0.4l149-86c2.4-1.4,2.1-3.8-0.7-5.3L302.9,288.2
								c-2.7-1.6-6.9-1.7-9.2-0.4l-149,86C142.3,375.2,142.6,377.6,145.3,379.2z"/>
							<path class="st8" d="M470.3,492.1v-2.7c0-0.3-0.2-0.4-0.4-0.3l-9.7,5.6c-0.2,0.1-0.4,0.4-0.4,0.7v2.7c0,0.3,0.2,0.4,0.4,0.3
								l9.7-5.6C470.1,492.7,470.3,492.4,470.3,492.1z"/>
							<path class="st8" d="M455.9,500.5v-2.7c0-0.3-0.2-0.4-0.4-0.3l-9.7,5.6c-0.2,0.1-0.4,0.4-0.4,0.7v2.7c0,0.3,0.2,0.4,0.4,0.3
								l9.7-5.6C455.7,501,455.9,500.7,455.9,500.5z"/>
							<path class="st9" d="M514.4,429.6L306.9,309.9c-1.4-0.8-3.1-0.8-4.5,0l-73.9,42.7c-1.1,0.6-1.1,2.1,0,2.8l207.4,119.7
								c1.4,0.8,3.1,0.8,4.5,0l74-42.7C515.4,431.8,515.4,430.2,514.4,429.6z"/>
							<path class="st10" d="M514.4,432.4l-0.7,0.4L306.9,313.5c-1.4-0.8-3.1-0.8-4.5,0l-73.1,42.3l-0.7-0.4c-1.1-0.6-1.1-2.1,0-2.8
								l73.9-42.7c1.4-0.8,3.1-0.8,4.5,0l207.5,119.8C515.4,430.2,515.4,431.8,514.4,432.4z"/>
							<g>
								<polygon class="st3" points="296.9,320.7 477.1,424.7 485.1,420.1 304.9,316.1 								"/>
								<polygon class="st3" points="277.2,332 446.2,429.6 454.3,425 285.2,327.4 								"/>
								<polygon class="st3" points="264.4,339.4 463.4,454.3 471.5,449.7 272.4,334.8 								"/>
								<polygon class="st3" points="251.6,346.8 450.6,461.7 458.7,457.1 259.6,342.2 								"/>
								<polygon class="st3" points="238.8,354.2 437.8,469.1 445.9,464.5 246.8,349.6 								"/>
								<polygon class="st3" points="488,431 496,435.6 504,431 496,426.4 								"/>
								<polygon class="st3" points="459.7,437.4 476.3,447 484.3,442.4 467.7,432.8 								"/>
							</g>
							
								<linearGradient id="SVGID_7_" gradientUnits="userSpaceOnUse" x1="-3280.7136" y1="429.1445" x2="-3175.3218" y2="429.1445" gradientTransform="matrix(-1 0 0 1 -2933.9871 0)">
								<stop  offset="0" style="stop-color:#C0BFF6"/>
								<stop  offset="0.2938" style="stop-color:#C5C4F7"/>
								<stop  offset="0.6399" style="stop-color:#D3D2F9"/>
								<stop  offset="1" style="stop-color:#E9E9FD"/>
							</linearGradient>
							<path class="st11" d="M298.9,458.6L243,426.3c-2.2-1.3-2.2-3.3,0-4.6l38.3-22.1c2.2-1.3,5.7-1.3,7.9,0l55.9,32.3
								c2.2,1.3,2.2,3.3,0,4.6l-38.3,22.1C304.6,459.9,301.1,459.9,298.9,458.6z"/>
							<path class="st10" d="M345.1,433.8l-55.9-32.3c-2.2-1.3-5.7-1.3-7.9,0L243,423.6c-0.7,0.4-1.1,0.9-1.4,1.4
								c-0.6-1.1-0.1-2.3,1.4-3.2l38.3-22.1c2.2-1.3,5.7-1.3,7.9,0l55.9,32.3c1.5,0.9,2,2.1,1.4,3.2
								C346.2,434.7,345.8,434.2,345.1,433.8z"/>
						</g>
					</g>
					<g class="st12">
						<defs>
							<polygon id="SVGID_3_" class="st12" points="337.5,102.9 580.7,243.3 550.5,421 307.6,280.8 							"/>
						</defs>
						<clipPath id="SVGID_8_">
							<use xlink:href="#SVGID_3_"  style="overflow:visible;"/>
						</clipPath>
						<g class="st13">
							
								<linearGradient id="SVGID_9_" gradientUnits="userSpaceOnUse" x1="-3507.7454" y1="314.5121" x2="-3096.0132" y2="314.5121" gradientTransform="matrix(-1 0 0 1 -2933.9871 0)">
								<stop  offset="0" style="stop-color:#C0BFF6"/>
								<stop  offset="0.2938" style="stop-color:#C5C4F7"/>
								<stop  offset="0.6399" style="stop-color:#D3D2F9"/>
								<stop  offset="1" style="stop-color:#E9E9FD"/>
							</linearGradient>
							<path class="st14" d="M302.6,287.9l249.7,144.1c2.7,1.6,6.9,1.7,9.2,0.4l149-86c2.4-1.4,2.1-3.8-0.7-5.3L460.2,197
								c-2.7-1.6-6.9-1.7-9.2-0.4l-149,86C299.6,284,299.9,286.3,302.6,287.9z"/>
							
								<linearGradient id="SVGID_10_" gradientUnits="userSpaceOnUse" x1="-3534.8442" y1="284.2879" x2="-3429.4524" y2="284.2879" gradientTransform="matrix(-1 0 0 1 -2933.9871 0)">
								<stop  offset="0" style="stop-color:#C0BFF6"/>
								<stop  offset="0.2938" style="stop-color:#C5C4F7"/>
								<stop  offset="0.6399" style="stop-color:#D3D2F9"/>
								<stop  offset="1" style="stop-color:#E9E9FD"/>
							</linearGradient>
							<path class="st15" d="M553,313.8l-55.9-32.3c-2.2-1.3-2.2-3.3,0-4.6l38.3-22.1c2.2-1.3,5.7-1.3,7.9,0l55.9,32.3
								c2.2,1.3,2.2,3.3,0,4.6L561,313.8C558.8,315,555.2,315,553,313.8z"/>
							<path class="st10" d="M599.2,289l-55.9-32.3c-2.2-1.3-5.7-1.3-7.9,0l-38.3,22.1c-0.7,0.4-1.1,0.9-1.4,1.4
								c-0.6-1.1-0.1-2.3,1.4-3.2l38.3-22.1c2.2-1.3,5.7-1.3,7.9,0l55.9,32.3c1.5,0.9,2,2.1,1.4,3.2
								C600.3,289.8,599.9,289.4,599.2,289z"/>
							<g>
								<path class="st9" d="M623.8,364.2L416.3,244.5c-1.4-0.8-3.1-0.8-4.5,0L338,287.2c-1.1,0.6-1.1,2.1,0,2.8l207.4,119.7
									c1.4,0.8,3.1,0.8,4.5,0l74-42.7C624.9,366.4,624.9,364.9,623.8,364.2z"/>
								<path class="st10" d="M623.8,367l-0.7,0.4L416.3,248.1c-1.4-0.8-3.1-0.8-4.5,0l-73.1,42.3L338,290c-1.1-0.6-1.1-2.1,0-2.8
									l73.9-42.7c1.4-0.8,3.1-0.8,4.5,0l207.5,119.8C624.9,364.9,624.9,366.4,623.8,367z"/>
								<g>
									<polygon class="st3" points="357.3,284.3 538.1,388.6 530.9,392.8 350.2,288.4 									"/>
									<polygon class="st3" points="376.4,273.3 548.2,372.5 541,376.6 369.2,277.4 									"/>
									<polygon class="st3" points="561,379.9 577,389.1 569.9,393.3 553.8,384 									"/>
									<polygon class="st3" points="546.8,393.7 558,400.1 550.8,404.3 539.7,397.8 									"/>
									<polygon class="st3" points="388.3,266.4 589,382.3 581.8,386.4 381.1,270.5 									"/>
									<polygon class="st3" points="400.2,259.5 600.9,375.4 593.7,379.5 393.1,263.6 									"/>
									<polygon class="st3" points="412.2,252.6 612.8,368.5 605.7,372.6 405,256.8 									"/>
								</g>
							</g>
						</g>
					</g>
				</g>
			</g>
		</g>
	</g>
	<g>
		<polygon class="st16" points="369,31.3 342.3,15.9 342.3,10 369,25.4 		"/>
		<polygon class="st16" points="382.7,39.1 373.1,33.6 373.1,27.7 382.7,33.3 		"/>
		<polygon class="st16" points="393.3,45.3 386.8,41.5 386.8,35.6 393.3,39.4 		"/>
		<polygon class="st16" points="356.9,37.6 342.3,29.2 342.3,23.4 356.9,31.8 		"/>
		<polygon class="st16" points="378.8,50.3 360.9,40 360.9,34.1 378.8,44.4 		"/>
		<polygon class="st16" points="389.4,56.4 382.8,52.6 382.8,46.8 389.4,50.5 		"/>
		<polygon class="st16" points="399.4,62.2 392.9,58.4 392.9,52.6 399.4,56.3 		"/>
		<polygon class="st17" points="352.9,48.7 342.3,42.6 342.3,36.8 352.9,42.8 		"/>
		<polygon class="st17" points="360.5,53.1 356.9,51 356.9,45.2 360.5,47.3 		"/>
		<polygon class="st16" points="371.1,59.2 364.6,55.5 364.6,49.6 371.1,53.4 		"/>
		<polygon class="st16" points="381.1,78.4 342.3,56 342.3,50.1 381.1,72.5 		"/>
		<polygon class="st16" points="394.8,86.3 385.2,80.7 385.2,74.9 394.8,80.4 		"/>
		<polygon class="st16" points="352.9,75.4 342.3,69.4 342.3,63.5 352.9,69.6 		"/>
		<polygon class="st16" points="377.5,89.7 356.9,77.8 356.9,71.9 377.5,83.8 		"/>
		<polygon class="st16" points="388.1,95.8 381.6,92 381.6,86.2 388.1,89.9 		"/>
		<polygon class="st16" points="363.9,95.2 342.3,82.7 342.3,76.9 363.9,89.3 		"/>
		<polygon class="st17" points="383.5,106.5 367.9,97.5 367.9,91.7 383.5,100.6 		"/>
		<polygon class="st16" points="398.1,114.9 387.6,108.9 387.6,103 398.1,109.1 		"/>
		<polygon class="st16" points="349.6,100.3 342.3,96.1 342.3,90.3 349.6,94.5 		"/>
		<polygon class="st16" points="363.3,108.2 353.7,102.7 353.7,96.8 363.3,102.4 		"/>
		<polygon class="st16" points="382.8,119.5 367.4,110.6 367.4,104.7 382.8,113.6 		"/>
		<polygon class="st16" points="364.6,122.4 342.3,109.5 342.3,103.6 364.6,116.5 		"/>
		<polygon class="st16" points="389.5,136.7 368.7,124.7 368.7,118.8 389.5,130.9 		"/>
		<polygon class="st17" points="400.1,142.9 393.6,139.1 393.6,133.2 400.1,137 		"/>
		<polygon class="st16" points="410.3,148.7 403.8,145 403.8,139.1 410.3,142.9 		"/>
		<polygon class="st16" points="355.7,130.6 342.3,122.9 342.3,117 355.7,124.7 		"/>
		<polygon class="st17" points="411.4,55.8 429.9,66.4 429.9,60.6 411.4,49.9 		"/>
		<polygon class="st16" points="415.4,71.4 429.9,79.8 429.9,73.9 415.4,65.6 		"/>
		<polygon class="st16" points="419.4,87.1 429.9,93.2 429.9,87.3 419.4,81.3 		"/>
		<polygon class="st16" points="414.6,97.7 429.9,106.6 429.9,100.7 414.6,91.9 		"/>
		<polygon class="st16" points="419.4,113.9 429.9,119.9 429.9,114.1 419.4,108 		"/>
		<polygon class="st16" points="416.6,125.6 429.9,133.3 429.9,127.5 416.6,119.8 		"/>
		<polygon class="st16" points="422.7,142.5 429.9,146.7 429.9,140.8 422.7,136.6 		"/>
		<polygon class="st16" points="415.9,151.9 429.9,160.1 429.9,154.2 415.9,146.1 		"/>
		<polygon class="st16" points="416.6,165.8 429.9,173.4 429.9,167.6 416.6,159.9 		"/>
		<polygon class="st16" points="365.4,136.2 359.8,132.9 359.8,127.1 365.4,130.3 		"/>
		<polygon class="st16" points="382.3,145.9 369.5,138.6 369.5,132.7 382.3,140.1 		"/>
		<polygon class="st16" points="472.4,90.7 445.8,75.3 445.8,69.5 472.4,84.9 		"/>
		<polygon class="st16" points="486.1,98.6 476.5,93.1 476.5,87.2 486.1,92.8 		"/>
		<polygon class="st17" points="496.7,104.7 490.2,101 490.2,95.1 496.7,98.9 		"/>
		<polygon class="st16" points="460.3,97.1 445.8,88.7 445.8,82.9 460.3,91.2 		"/>
		<polygon class="st16" points="482.2,109.7 464.4,99.5 464.4,93.6 482.2,103.9 		"/>
		<polygon class="st17" points="492.8,115.9 486.2,112.1 486.2,106.2 492.8,110 		"/>
		<polygon class="st16" points="502.9,121.7 496.3,117.9 496.3,112.1 502.9,115.8 		"/>
		<polygon class="st16" points="456.3,108.2 445.8,102.1 445.8,96.2 456.3,102.3 		"/>
		<polygon class="st16" points="463.9,112.6 460.3,110.5 460.3,104.7 463.9,106.7 		"/>
		<polygon class="st16" points="474.5,118.7 468,114.9 468,109.1 474.5,112.8 		"/>
		<polygon class="st16" points="484.6,137.9 445.8,115.5 445.8,109.6 484.6,132 		"/>
		<polygon class="st16" points="498.2,145.8 488.6,140.2 488.6,134.4 498.2,139.9 		"/>
		<polygon class="st16" points="456.3,134.9 445.8,128.8 445.8,123 456.3,129.1 		"/>
		<polygon class="st16" points="480.9,149.2 460.3,137.3 460.3,131.4 480.9,143.3 		"/>
		<polygon class="st16" points="491.5,155.3 485,151.5 485,145.7 491.5,149.4 		"/>
		<polygon class="st17" points="467.3,154.6 445.8,142.2 445.8,136.4 467.3,148.8 		"/>
		<polygon class="st16" points="486.9,166 471.3,157 471.3,151.1 486.9,160.1 		"/>
		<polygon class="st16" points="501.5,174.4 491,168.3 491,162.5 501.5,168.5 		"/>
		<polygon class="st16" points="453,159.8 445.8,155.6 445.8,149.7 453,153.9 		"/>
		<polygon class="st16" points="466.7,167.7 457.1,162.1 457.1,156.3 466.7,161.8 		"/>
		<polygon class="st17" points="486.2,179 470.8,170 470.8,164.2 486.2,173.1 		"/>
		<polygon class="st16" points="468,181.8 445.8,169 445.8,163.1 468,176 		"/>
		<polygon class="st16" points="492.9,196.2 472.1,184.2 472.1,178.3 492.9,190.4 		"/>
		<polygon class="st16" points="503.5,202.3 497,198.6 497,192.7 503.5,196.5 		"/>
		<polygon class="st16" points="513.7,208.2 507.2,204.4 507.2,198.6 513.7,202.4 		"/>
		<polygon class="st16" points="459.1,190.1 445.8,182.4 445.8,176.5 459.1,184.2 		"/>
		<polygon class="st17" points="514.9,115.2 533.3,125.9 533.3,120 514.9,109.4 		"/>
		<polygon class="st16" points="518.8,130.9 533.3,139.3 533.3,133.4 518.8,125 		"/>
		<polygon class="st16" points="522.8,146.6 533.3,152.7 533.3,146.8 522.8,140.7 		"/>
		<polygon class="st16" points="518.1,157.2 533.3,166 533.3,160.2 518.1,151.3 		"/>
		<polygon class="st16" points="522.8,173.3 533.3,179.4 533.3,173.6 522.8,167.5 		"/>
		<polygon class="st16" points="520,185.1 533.3,192.8 533.3,186.9 520,179.2 		"/>
		<polygon class="st16" points="526.1,202 533.3,206.2 533.3,200.3 526.1,196.1 		"/>
		<polygon class="st16" points="519.3,211.4 533.3,219.5 533.3,213.7 519.3,205.6 		"/>
		<polygon class="st16" points="520,225.2 533.3,232.9 533.3,227.1 520,219.4 		"/>
		<polygon class="st17" points="468.8,195.7 463.2,192.4 463.2,186.5 468.8,189.8 		"/>
		<polygon class="st16" points="485.7,205.4 472.9,198 472.9,192.2 485.7,199.5 		"/>
		<polygon class="st16" points="369,151.7 342.3,136.3 342.3,130.5 369,145.9 		"/>
		<polygon class="st16" points="382.7,159.6 373.1,154.1 373.1,148.2 382.7,153.8 		"/>
		<polygon class="st16" points="393.3,165.7 386.8,162 386.8,156.1 393.3,159.9 		"/>
		<polygon class="st16" points="356.9,158.1 342.3,149.7 342.3,143.9 356.9,152.2 		"/>
		<polygon class="st16" points="378.8,170.7 360.9,160.5 360.9,154.6 378.8,164.9 		"/>
		<polygon class="st16" points="389.4,176.9 382.8,173.1 382.8,167.2 389.4,171 		"/>
		<polygon class="st16" points="399.4,182.7 392.9,178.9 392.9,173.1 399.4,176.8 		"/>
		<polygon class="st16" points="352.9,169.2 342.3,163.1 342.3,157.2 352.9,163.3 		"/>
		<polygon class="st16" points="360.5,173.6 356.9,171.5 356.9,165.7 360.5,167.7 		"/>
		<polygon class="st16" points="371.1,179.7 364.6,175.9 364.6,170.1 371.1,173.9 		"/>
		<polygon class="st16" points="381.1,198.9 342.3,176.5 342.3,170.6 381.1,193 		"/>
		<polygon class="st16" points="394.8,206.8 385.2,201.2 385.2,195.4 394.8,200.9 		"/>
		<polygon class="st16" points="352.9,195.9 342.3,189.8 342.3,184 352.9,190.1 		"/>
		<polygon class="st16" points="377.5,210.2 356.9,198.3 356.9,192.4 377.5,204.3 		"/>
		<polygon class="st16" points="388.1,216.3 381.6,212.5 381.6,206.7 388.1,210.4 		"/>
		<polygon class="st16" points="363.9,215.6 342.3,203.2 342.3,197.4 363.9,209.8 		"/>
		<polygon class="st16" points="383.5,227 367.9,218 367.9,212.1 383.5,221.1 		"/>
		<polygon class="st16" points="398.1,235.4 387.6,229.3 387.6,223.5 398.1,229.5 		"/>
		<polygon class="st16" points="349.6,220.8 342.3,216.6 342.3,210.7 349.6,214.9 		"/>
		<polygon class="st16" points="363.3,228.7 353.7,223.2 353.7,217.3 363.3,222.8 		"/>
		<polygon class="st16" points="382.8,240 367.4,231 367.4,225.2 382.8,234.1 		"/>
		<polygon class="st16" points="364.6,242.8 342.3,230 342.3,224.1 364.6,237 		"/>
		<polygon class="st16" points="389.5,257.2 368.7,245.2 368.7,239.3 389.5,251.4 		"/>
		<polygon class="st16" points="400.1,263.3 393.6,259.6 393.6,253.7 400.1,257.5 		"/>
		<polygon class="st16" points="410.3,269.2 403.8,265.4 403.8,259.6 410.3,263.4 		"/>
		<polygon class="st16" points="355.7,251.1 342.3,243.4 342.3,237.5 355.7,245.2 		"/>
		<polygon class="st16" points="411.4,176.2 429.9,186.9 429.9,181 411.4,170.4 		"/>
		<polygon class="st16" points="415.4,191.9 429.9,200.3 429.9,194.4 415.4,186 		"/>
		<polygon class="st16" points="419.4,207.6 429.9,213.7 429.9,207.8 419.4,201.7 		"/>
		<polygon class="st16" points="414.6,218.2 429.9,227 429.9,221.2 414.6,212.4 		"/>
		<polygon class="st16" points="419.4,234.3 429.9,240.4 429.9,234.6 419.4,228.5 		"/>
		<polygon class="st16" points="416.6,246.1 429.9,253.8 429.9,247.9 416.6,240.2 		"/>
		<polygon class="st16" points="422.7,263 429.9,267.2 429.9,261.3 422.7,257.1 		"/>
		<polygon class="st16" points="415.9,272.4 429.9,280.6 429.9,274.7 415.9,266.6 		"/>
		<polygon class="st16" points="416.6,286.2 429.9,293.9 429.9,288.1 416.6,280.4 		"/>
		<polygon class="st16" points="365.4,256.7 359.8,253.4 359.8,247.6 365.4,250.8 		"/>
		<polygon class="st16" points="382.3,266.4 369.5,259 369.5,253.2 382.3,260.5 		"/>
		<polygon class="st16" points="392.8,311.4 371.3,299 371.3,293.1 392.8,305.6 		"/>
		<polygon class="st16" points="407.6,319.9 399.1,315 399.1,309.2 407.6,314.1 		"/>
		<polygon class="st16" points="472.4,211.2 445.8,195.8 445.8,190 472.4,205.4 		"/>
		<polygon class="st16" points="486.1,219.1 476.5,213.6 476.5,207.7 486.1,213.2 		"/>
		<polygon class="st16" points="496.7,225.2 490.2,221.5 490.2,215.6 496.7,219.4 		"/>
		<polygon class="st16" points="460.3,217.6 445.8,209.2 445.8,203.3 460.3,211.7 		"/>
		<polygon class="st16" points="482.2,230.2 464.4,219.9 464.4,214.1 482.2,224.4 		"/>
		<polygon class="st16" points="492.8,236.3 486.2,232.6 486.2,226.7 492.8,230.5 		"/>
		<polygon class="st16" points="502.9,242.2 496.3,238.4 496.3,232.5 502.9,236.3 		"/>
		<polygon class="st16" points="456.3,228.6 445.8,222.6 445.8,216.7 456.3,222.8 		"/>
		<polygon class="st16" points="463.9,233.1 460.3,231 460.3,225.1 463.9,227.2 		"/>
		<polygon class="st16" points="474.5,239.2 468,235.4 468,229.6 474.5,233.3 		"/>
		<polygon class="st16" points="484.6,258.3 445.8,235.9 445.8,230.1 484.6,252.5 		"/>
		<polygon class="st16" points="498.2,266.2 488.6,260.7 488.6,254.8 498.2,260.4 		"/>
		<polygon class="st16" points="456.3,255.4 445.8,249.3 445.8,243.5 456.3,249.5 		"/>
		<polygon class="st16" points="480.9,269.6 460.3,257.7 460.3,251.9 480.9,263.8 		"/>
		<polygon class="st16" points="491.5,275.8 485,272 485,266.1 491.5,269.9 		"/>
		<polygon class="st16" points="467.3,275.1 445.8,262.7 445.8,256.8 467.3,269.3 		"/>
		<polygon class="st16" points="486.9,286.5 471.3,277.5 471.3,271.6 486.9,280.6 		"/>
		<polygon class="st16" points="501.5,294.9 491,288.8 491,282.9 501.5,289 		"/>
		<polygon class="st16" points="453,280.3 445.8,276.1 445.8,270.2 453,274.4 		"/>
		<polygon class="st16" points="466.7,288.2 457.1,282.6 457.1,276.8 466.7,282.3 		"/>
		<polygon class="st16" points="486.2,299.5 470.8,290.5 470.8,284.7 486.2,293.6 		"/>
		<polygon class="st16" points="468,302.3 445.8,289.5 445.8,283.6 468,296.4 		"/>
		<polygon class="st16" points="492.9,316.7 472.1,304.7 472.1,298.8 492.9,310.8 		"/>
		<polygon class="st16" points="503.5,322.8 497,319 497,313.2 503.5,317 		"/>
		<polygon class="st16" points="513.7,328.7 507.2,324.9 507.2,319.1 513.7,322.8 		"/>
		<polygon class="st16" points="459.1,310.5 445.8,302.8 445.8,297 459.1,304.7 		"/>
		<polygon class="st16" points="514.9,235.7 533.3,246.4 533.3,240.5 514.9,229.8 		"/>
		<polygon class="st16" points="518.8,251.4 533.3,259.8 533.3,253.9 518.8,245.5 		"/>
		<polygon class="st16" points="522.8,267.1 533.3,273.1 533.3,267.3 522.8,261.2 		"/>
		<polygon class="st16" points="518.1,277.7 533.3,286.5 533.3,280.7 518.1,271.8 		"/>
		<polygon class="st16" points="522.8,293.8 533.3,299.9 533.3,294 522.8,288 		"/>
		<polygon class="st16" points="520,305.6 533.3,313.3 533.3,307.4 520,299.7 		"/>
		<polygon class="st16" points="526.1,322.5 533.3,326.6 533.3,320.8 526.1,316.6 		"/>
		<polygon class="st16" points="519.3,331.9 533.3,340 533.3,334.2 519.3,326 		"/>
		<polygon class="st16" points="520,345.7 533.3,353.4 533.3,347.5 520,339.9 		"/>
		<polygon class="st16" points="468.8,316.2 463.2,312.9 463.2,307 468.8,310.3 		"/>
		<polygon class="st16" points="485.7,325.9 472.9,318.5 472.9,312.7 485.7,320 		"/>
		<polygon class="st16" points="496.2,370.9 474.7,358.4 474.7,352.6 496.2,365 		"/>
		<polygon class="st16" points="511,379.4 502.5,374.5 502.5,368.6 511,373.5 		"/>
	</g>
</g>
</svg>
